<?xml version="1.0" encoding="UTF-8" standalone="no"?>
<!DOCTYPE svg PUBLIC "-//W3C//DTD SVG 1.1//EN" "http://www.w3.org/Graphics/SVG/1.1/DTD/svg11.dtd">
<svg width="100%" height="100%" viewBox="0 0 97 100" version="1.1" xmlns="http://www.w3.org/2000/svg" xmlns:xlink="http://www.w3.org/1999/xlink" xml:space="preserve" xmlns:serif="http://www.serif.com/" style="fill-rule:evenodd;clip-rule:evenodd;stroke-linecap:round;stroke-miterlimit:1.5;">
    <g transform="matrix(1,0,0,1,-1.54056,-1.12854)">
        <g transform="matrix(0.887083,0,0,0.881578,-3.13771,-0.662855)">
            <rect x="14.927" y="19.821" width="89.949" height="85.056" style="fill:rgb(200,46,46);fill-opacity:0;stroke:rgb(250,81,0);stroke-width:10.74px;"/>
        </g>
        <g transform="matrix(-253.971,0,0,1.27259,14016.7,-22.1658)">
            <rect x="54.976" y="45.446" width="0.034" height="29.286" style="fill:rgb(250,81,0);stroke:rgb(200,46,46);stroke-opacity:0;stroke-width:0.01px;"/>
        </g>
        <g transform="matrix(-319.088,0,0,1.02037,17617.5,-44.3423)">
            <rect x="54.976" y="45.446" width="0.034" height="29.286" style="fill:rgb(250,81,0);"/>
        </g>
        <g transform="matrix(-319.088,0,0,1.02037,17577.7,-44.3423)">
            <rect x="54.976" y="45.446" width="0.034" height="29.286" style="fill:rgb(250,81,0);"/>
        </g>
        <g transform="matrix(-1.55512e-14,-253.971,-1.27259,7.79236e-17,126.469,14021)">
            <rect x="54.976" y="45.446" width="0.034" height="29.286" style="fill:rgb(250,81,0);stroke:rgb(200,46,46);stroke-opacity:0;stroke-width:0.01px;"/>
        </g>
    </g>
</svg>
