<?xml version="1.0" encoding="UTF-8" standalone="no"?>
<!DOCTYPE svg PUBLIC "-//W3C//DTD SVG 1.1//EN" "http://www.w3.org/Graphics/SVG/1.1/DTD/svg11.dtd">
<svg width="100%" height="100%" viewBox="0 0 24 24" version="1.1" xmlns="http://www.w3.org/2000/svg" xmlns:xlink="http://www.w3.org/1999/xlink" xml:space="preserve" xmlns:serif="http://www.serif.com/" style="fill-rule:evenodd;clip-rule:evenodd;stroke-linejoin:round;stroke-miterlimit:2;">
    <g transform="matrix(1.14286,0,0,1.14286,-1.71429,-1176.46)">
        <g transform="matrix(1.10629,0,0,1,-0.732195,0)">
            <path d="M5,1032.4C3.895,1032.4 3,1033.3 3,1034.4L3,1048.4C3,1049.5 3.895,1050.4 5,1050.4L19,1050.4C20.105,1050.4 21,1049.5 21,1048.4L21,1034.4C21,1033.3 20.105,1032.4 19,1032.4L5,1032.4Z" style="fill:rgb(189,195,199);fill-rule:nonzero;"/>
        </g>
        <g transform="matrix(1.10629,0,0,1,-1.81888,1028.4)">
            <path d="M5,3C3.895,3 3,3.895 3,5L3,19C3,20.105 3.895,21 5,21L19,21C20.105,21 21,20.105 21,19L21,5C21,3.895 20.105,3 19,3L5,3Z" style="fill:rgb(236,240,241);fill-rule:nonzero;"/>
        </g>
        <g transform="matrix(1.10629,0,0,1,-1.81888,1028.4)">
            <path d="M5,3C3.895,3 3,3.895 3,5L3,9L21,9L21,5C21,3.895 20.105,3 19,3L5,3Z" style="fill:rgb(231,76,60);fill-rule:nonzero;"/>
        </g>
        <g transform="matrix(1.10629,0,0,1,-1.26573,1028.4)">
            <path d="M7,5.5C7,6.323 6.323,7 5.5,7C4.677,7 4,6.323 4,5.5C4,4.677 4.677,4 5.5,4C6.323,4 7,4.677 7,5.5Z" style="fill:rgb(192,57,43);fill-rule:nonzero;"/>
        </g>
        <g transform="matrix(1.10629,0,0,1,-1.81888,1028.4)">
            <path d="M6,1C5.448,1 5,1.448 5,2L5,5C5,5.552 5.448,6 6,6C6.552,6 7,5.552 7,5L7,2C7,1.448 6.552,1 6,1Z" style="fill:rgb(189,195,199);fill-rule:nonzero;"/>
        </g>
        <g transform="matrix(1.10629,0,0,1,12.0098,1028.4)">
            <path d="M7,5.5C7,6.323 6.323,7 5.5,7C4.677,7 4,6.323 4,5.5C4,4.677 4.677,4 5.5,4C6.323,4 7,4.677 7,5.5Z" style="fill:rgb(192,57,43);fill-rule:nonzero;"/>
        </g>
        <g transform="matrix(1.10629,0,0,1,-1.81888,0)">
            <path d="M18,1029.4C17.448,1029.4 17,1029.8 17,1030.4L17,1033.4C17,1033.9 17.448,1034.4 18,1034.4C18.552,1034.4 19,1033.9 19,1033.4L19,1030.4C19,1029.8 18.552,1029.4 18,1029.4Z" style="fill:rgb(189,195,199);fill-rule:nonzero;"/>
            <path d="M5,1039.4L5,1041.4L7,1041.4L7,1039.4L5,1039.4ZM8,1039.4L8,1041.4L10,1041.4L10,1039.4L8,1039.4ZM11,1039.4L11,1041.4L13,1041.4L13,1039.4L11,1039.4ZM14,1039.4L14,1041.4L16,1041.4L16,1039.4L14,1039.4ZM17,1039.4L17,1041.4L19,1041.4L19,1039.4L17,1039.4Z" style="fill:rgb(189,195,199);fill-rule:nonzero;"/>
            <path d="M5,1042.4L5,1044.4L7,1044.4L7,1042.4L5,1042.4ZM8,1042.4L8,1044.4L10,1044.4L10,1042.4L8,1042.4ZM11,1042.4L11,1044.4L13,1044.4L13,1042.4L11,1042.4ZM14,1042.4L14,1044.4L16,1044.4L16,1042.4L14,1042.4ZM17,1042.4L17,1044.4L19,1044.4L19,1042.4L17,1042.4Z" style="fill:rgb(189,195,199);fill-rule:nonzero;"/>
            <path d="M5,1045.4L5,1047.4L7,1047.4L7,1045.4L5,1045.4ZM8,1045.4L8,1047.4L10,1047.4L10,1045.4L8,1045.4ZM11,1045.4L11,1047.4L13,1047.4L13,1045.4L11,1045.4ZM14,1045.4L14,1047.4L16,1047.4L16,1045.4L14,1045.4ZM17,1045.4L17,1047.4L19,1047.4L19,1045.4L17,1045.4Z" style="fill:rgb(189,195,199);fill-rule:nonzero;"/>
        </g>
        <g transform="matrix(0.911013,0,0,0.820068,0.522237,1030.53)">
            <rect x="10.786" y="10.816" width="2.423" height="9.755" style="fill:rgb(90,90,90);"/>
        </g>
        <g transform="matrix(5.57835e-17,0.823483,-0.907235,5.02147e-17,25.6903,1033.52)">
            <rect x="10.786" y="10.816" width="2.423" height="9.755" style="fill:rgb(90,90,90);"/>
        </g>
    </g>
</svg>
