<?xml version="1.0" encoding="UTF-8" standalone="no"?>
<!DOCTYPE svg PUBLIC "-//W3C//DTD SVG 1.1//EN" "http://www.w3.org/Graphics/SVG/1.1/DTD/svg11.dtd">
<svg width="100%" height="100%" viewBox="0 0 1024 1024" version="1.1" xmlns="http://www.w3.org/2000/svg" xmlns:xlink="http://www.w3.org/1999/xlink" xml:space="preserve" xmlns:serif="http://www.serif.com/" style="fill-rule:evenodd;clip-rule:evenodd;stroke-linecap:round;stroke-linejoin:round;">
    <g transform="matrix(0.457143,0,0,-0.457143,0,1024)">
        <path d="M1120,2240C1738.55,2240 2240,1738.56 2240,1120C2240,501.441 1738.55,0 1120,0C501.441,0 0,501.441 0,1120C0,1738.56 501.441,2240 1120,2240" style="fill:rgb(88,129,87);"/>
    </g>
    <g transform="matrix(0.484319,0,0,-0.495743,-30.9218,1077.92)">
        <path d="M1074,261C1095,317 1080,476 1047,560C1008,659 1001,634 917.004,600C832.996,566 797.004,458 836,359C874,265 967.004,213 1049,238C1061,243 1070,251 1074,261" style="fill:rgb(243,190,160);"/>
    </g>
    <g transform="matrix(0.484319,0,0,-0.495743,-30.9218,1077.92)">
        <path d="M837.996,518C829,478 831,433 849,390C887.004,295 981,243 1064,269C1072,272 1079,277 1084,283C1082,273 1080,264 1078,257C1074,247 1065,239 1053,234C971,208 876,260 837.996,355C815,411 817.004,470 837.996,518" style="fill:rgb(242,184,150);"/>
    </g>
    <g transform="matrix(0.484319,0,0,-0.495743,-30.9218,1077.92)">
        <path d="M1154,261C1133,317 1148,476 1181,560C1220,659 1227,634 1311,600C1395,566 1431,458 1392,359C1354,265 1261,213 1179,238C1167,243 1158,251 1154,261" style="fill:rgb(243,190,160);"/>
    </g>
    <g transform="matrix(0.484319,0,0,-0.495743,-30.9218,1077.92)">
        <path d="M1233,630C1227,620 1221,606 1214,589C1180,506 1165,348 1187,293C1191,283 1200,275 1212,271C1254,258 1298,265 1337,287C1292,244 1231,226 1175,244C1163,248 1154,256 1150,266C1129,321 1144,479 1177,562C1200,616 1211,632 1233,630" style="fill:rgb(242,184,150);"/>
    </g>
    <g transform="matrix(0.484319,0,0,-0.495743,-30.9218,1077.92)">
        <path d="M712.004,470C567.004,484 454,607 454,756C454,796 462.004,835 477.004,869C424,921 390,994 390,1075C390,1193 461,1295 562.004,1339C547.004,1368 537.996,1402 537.996,1437C537.996,1555 632.996,1650 750,1650C867.004,1650 962.004,1555 962.004,1437C962.004,1370 932.004,1311 884,1272C925,1228 952.004,1172 960,1109C1003,1128 1050,1138 1100,1138C1166,1138 1228,1120 1280,1088C1283,1154 1309,1215 1349,1262C1294,1301 1259,1364 1259,1437C1259,1555 1354,1650 1471,1650C1588,1650 1683,1555 1683,1437C1683,1404 1676,1373 1663,1346C1774,1306 1853,1200 1853,1075C1853,990 1817,914 1759,861C1772,828 1779,792 1779,755C1779,609 1671,489 1532,470C1519,413 1468,371 1408,371C1365,371 1327,392 1304,425C1266,367 1194,329 1111,329C1035,329 967.996,362 927.996,412C905,387 872.004,372 836,372C775,373 725,414 712.004,470" style="fill:white;"/>
    </g>
    <g transform="matrix(0.484319,0,0,-0.495743,-30.9218,1077.92)">
        <path d="M827.004,1637C786,1598 760,1543 760,1481C760,1446 769,1412 784,1383C682.996,1339 612.004,1237 612.004,1119C612.004,1038 645,965 699,913C684,878 676,840 676,800C676,651 789,528 934,514C947.996,458 997.996,417 1057,417C1093,417 1126,432 1149,457C1176,423 1216,397 1262,384C1222,352 1169,332 1110,332C1034,332 967.004,365 927.004,415C904,390 871,375 835,375C775,375 725,416 712.004,472C567.004,486 454,609 454,758C454,798 462.004,837 477.004,871C424,923 390,996 390,1077C390,1195 461,1297 562.004,1341C547.004,1370 537.996,1404 537.996,1439C537.996,1557 632.996,1652 750,1652C777.004,1652 802.996,1647 827.004,1637Z" style="fill:rgb(238,245,252);"/>
    </g>
    <g transform="matrix(0.484319,0,0,-0.495743,-30.9218,1077.92)">
        <path d="M1215,351C1184,337 1150,330 1113,330C1047,330 987.004,355 947.004,394C982.004,395 1014,410 1036,434C1075,385 1141,352 1215,351ZM764,1651C694,1616 645,1544 645,1459C645,1424 654,1390 669,1361C567.004,1317 496,1215 496,1097C496,1016 529,943 582.996,891C567.996,856 560,818 560,778C560,629 672.996,506 819,492C830,446 866,410 912.004,398C891,382 865,373 836,373C776,373 726,414 712.004,470C567.004,484 452.996,607 452.996,756C452.996,796 461,835 476,869C422.004,921 389,994 389,1075C389,1193 460,1295 562.004,1339C547.004,1368 537.996,1402 537.996,1437C537.996,1555 632.996,1650 751,1650C756,1652 760,1652 764,1651Z" style="fill:rgb(208,228,246);"/>
    </g>
    <g transform="matrix(0.595755,0,0,-0.609808,-147.975,1266.2)">
        <path d="M564,1478C601,1438 704,1442 775,1508C846,1574 866,1669 820,1719C774,1769 680,1755 609,1689C537.996,1623 527.004,1517 564,1478" style="fill:rgb(243,190,160);"/>
    </g>
    <g transform="matrix(0.595755,0,0,-0.609808,-147.975,1266.2)">
        <path d="M737.004,1746C719,1736 701,1723 685,1707C617.004,1640 606,1534 642.004,1494C659,1475 691,1465 727.004,1469C666,1437 597.996,1441 570,1473C534,1513 545,1619 612.996,1686C651,1722 696,1743 737.004,1746" style="fill:rgb(241,183,149);"/>
    </g>
    <g transform="matrix(0.595755,0,0,-0.609808,-147.975,1266.2)">
        <path d="M712.004,1746C687.996,1736 662.996,1721 641,1701C567.004,1635 556,1531 594,1492C617.004,1468 666,1460 717.004,1472C655,1446 589,1452 560,1481C522.004,1521 532.996,1624 607.004,1690C640,1719 677.004,1738 712.004,1746" style="fill:rgb(240,175,139);"/>
    </g>
    <g transform="matrix(0.595755,0,0,-0.609808,-147.975,1266.2)">
        <path d="M1657,1478C1620,1438 1517,1442 1446,1508C1375,1575 1355,1669 1401,1719C1447,1769 1541,1755 1612,1689C1683,1623 1694,1517 1657,1478" style="fill:rgb(243,190,160);"/>
    </g>
    <g transform="matrix(0.595755,0,0,-0.609808,-147.975,1266.2)">
        <path d="M1646,1467C1605,1431 1505,1437 1435,1502C1363,1569 1343,1665 1389,1715C1410,1737 1440,1747 1474,1745C1471,1742 1468,1740 1465,1737C1418,1687 1439,1591 1511,1524C1552,1486 1603,1469 1646,1467" style="fill:rgb(242,184,150);"/>
    </g>
    <g transform="matrix(0.595755,0,0,-0.609808,-147.975,1266.2)">
        <path d="M1107,893C1343,893 1534,990 1534,1299C1534,1608 1343,1859 1107,1859C871,1859 680,1608 680,1299C680,990 872.004,893 1107,893" style="fill:rgb(252,214,193);"/>
    </g>
    <g transform="matrix(0.595755,0,0,-0.609808,-147.975,1266.2)">
        <path d="M1196,1845C979,1821 807.996,1580 807.996,1288C807.996,1036 934,925 1108,893L1106,893C871,893 681,990 681,1299C681,1608 871,1859 1106,1859C1137,1858 1167,1854 1196,1845" style="fill:rgb(251,206,180);"/>
    </g>
    <g transform="matrix(0.595755,0,0,-0.609808,-147.975,1266.2)">
        <path d="M1005,902C819,930 681,1039 681,1300C681,1609 874,1859 1113,1859C1145,1859 1176,1855 1206,1846C1193,1847 1180,1848 1167,1848C927.996,1848 735,1598 735,1289C735,1054 847.004,942 1005,902" style="fill:rgb(251,197,166);"/>
    </g>
    <g transform="matrix(0.595755,0,0,-0.609808,-147.975,1266.2)">
        <path d="M1107,1087L1107,906" style="fill:none;fill-rule:nonzero;stroke:rgb(211,95,45);stroke-width:30px;"/>
    </g>
    <g transform="matrix(0.595755,0,0,-0.609808,-147.975,1266.2)">
        <path d="M1102.88,1061.75C1131.88,1061.75 1168.88,1096.75 1168.88,1124.75C1168.88,1152.75 1139.87,1174.75 1102.88,1174.75C1065.87,1174.75 1036.88,1151.75 1036.88,1123.75C1036.88,1095.75 1073.88,1061.75 1102.88,1061.75" style="fill:rgb(211,95,45);"/>
    </g>
    <g transform="matrix(0.595755,0,0,-0.609808,-147.975,1266.2)">
        <path d="M1116.88,1172.75C1087.88,1167.75 1064.87,1147.75 1064.87,1123.75C1064.87,1100.75 1090.87,1071.75 1116.88,1063.75C1111.88,1061.75 1106.88,1061.75 1102.88,1061.75C1073.88,1061.75 1036.88,1096.75 1036.88,1124.75C1036.88,1152.75 1065.87,1174.75 1102.88,1174.75C1106.88,1173.75 1111.88,1173.75 1116.88,1172.75" style="fill:rgb(209,88,40);"/>
    </g>
    <g transform="matrix(0.595755,0,0,-0.609808,-147.975,1266.2)">
        <path d="M1134.87,1145.75C1142.61,1145.75 1148.88,1137.24 1148.88,1126.75C1148.88,1116.26 1142.61,1107.75 1134.87,1107.75C1127.14,1107.75 1120.87,1116.26 1120.87,1126.75C1120.87,1137.24 1127.14,1145.75 1134.87,1145.75" style="fill:rgb(220,124,84);"/>
    </g>
    <g transform="matrix(0.595755,0,0,-0.609808,-147.975,1266.2)">
        <path d="M932.996,1867C955,1932 1025,1980 1107,1980C1189,1980 1259,1932 1281,1867C1308,1884 1339,1894 1373,1894C1467,1894 1543,1817 1543,1722C1543,1627 1467,1550 1373,1550C1339,1550 1308,1560 1281,1577C1260,1512 1190,1464 1107,1464C1024,1464 955,1512 932.996,1577C907.004,1560 875,1550 841,1550C747.004,1550 671,1627 671,1722C671,1817 747.004,1894 841,1894C875,1894 907.004,1884 932.996,1867" style="fill:white;"/>
    </g>
    <g transform="matrix(0.595755,0,0,-0.609808,-147.975,1266.2)">
        <path d="M1224,1498C1193,1477 1153,1465 1110,1465C1027,1465 956,1512 935,1576C907.996,1559 876,1549 842.004,1549C747.004,1549 671,1625 671,1718C671,1806 740,1879 827.004,1886C784,1855 756,1805 756,1749C756,1656 832.996,1580 927.004,1580C961,1580 992.996,1590 1020,1607C1042,1543 1112,1496 1195,1496C1206,1496 1215,1497 1224,1498Z" style="fill:rgb(238,245,252);"/>
    </g>
    <g transform="matrix(0.595755,0,0,-0.609808,-147.975,1266.2)">
        <path d="M862.004,1552C855,1551 847.996,1551 841,1551C747.004,1551 671,1628 671,1723C671,1818 747.004,1895 841,1895C847.996,1895 855,1895 862.004,1894C777.996,1883 712.996,1811 712.996,1723C712.996,1635 779,1562 862.004,1552ZM1128,1465C1121,1464 1114,1464 1107,1464C1032,1464 967.996,1503 940,1560C952.996,1564 964,1570 975,1578C995,1518 1055,1473 1128,1465ZM940,1884C967.004,1940 1032,1980 1107,1980C1114,1980 1121,1980 1128,1979C1055,1972 995,1927 976,1867C964,1874 952.004,1880 940,1884Z" style="fill:rgb(208,228,246);"/>
    </g>
    <g transform="matrix(1.3318,0,0,-1.36321,-826.19,2201.96)">
        <path d="M929,1314C952.195,1314 971,1295.2 971,1272C971,1248.8 952.195,1230 929,1230C905.805,1230 887.004,1248.8 887.004,1272C887.004,1295.2 905.805,1314 929,1314" style="fill:rgb(14,15,14);"/>
    </g>
    <g transform="matrix(0.548454,0,0,-0.561391,-86.2507,1160.46)">
        <path d="M929,1314C952.195,1314 971,1295.2 971,1272C971,1248.8 952.195,1230 929,1230C905.805,1230 887.004,1248.8 887.004,1272C887.004,1295.2 905.805,1314 929,1314" style="fill:rgb(246,255,246);"/>
    </g>
    <g transform="matrix(1.3318,0,0,-1.36321,-1103.65,2201.96)">
        <path d="M1304,1314C1327.2,1314 1346,1295.2 1346,1272C1346,1248.8 1327.2,1230 1304,1230C1280.8,1230 1262,1248.8 1262,1272C1262,1295.2 1280.8,1314 1304,1314" style="fill:rgb(14,15,14);"/>
    </g>
    <g transform="matrix(0.548454,0,0,-0.561391,135.291,1160.46)">
        <path d="M929,1314C952.195,1314 971,1295.2 971,1272C971,1248.8 952.195,1230 929,1230C905.805,1230 887.004,1248.8 887.004,1272C887.004,1295.2 905.805,1314 929,1314" style="fill:rgb(246,255,246);"/>
    </g>
</svg>
