<?xml version="1.0" encoding="UTF-8" standalone="no"?>
<!DOCTYPE svg PUBLIC "-//W3C//DTD SVG 1.1//EN" "http://www.w3.org/Graphics/SVG/1.1/DTD/svg11.dtd">
<svg width="100%" height="100%" viewBox="0 0 97 100" version="1.1" xmlns="http://www.w3.org/2000/svg" xmlns:xlink="http://www.w3.org/1999/xlink" xml:space="preserve" xmlns:serif="http://www.serif.com/" style="fill-rule:evenodd;clip-rule:evenodd;stroke-linecap:round;stroke-miterlimit:1.5;">
    <g transform="matrix(1,0,0,1,-1.54056,-1.12854)">
        <g transform="matrix(0.964394,0,0,0.931019,-7.77335,-1.64282)">
            <rect x="14.927" y="19.821" width="89.949" height="85.056" style="fill:none;stroke:rgb(33,37,41);stroke-width:10.74px;"/>
        </g>
        <g transform="matrix(-253.971,0,0,1.27259,14016.7,-20.1328)">
            <rect x="54.976" y="45.446" width="0.034" height="29.286" style="fill:rgb(33,37,41);stroke:rgb(200,46,46);stroke-opacity:0;stroke-width:0.01px;"/>
        </g>
        <g transform="matrix(-319.088,0,0,1.05113,17617.5,-46.6412)">
            <rect x="54.976" y="45.446" width="0.034" height="29.286" style="fill:rgb(33,37,41);"/>
        </g>
        <g transform="matrix(-319.088,0,0,1.05113,17577.7,-46.6412)">
            <rect x="54.976" y="45.446" width="0.034" height="29.286" style="fill:rgb(33,37,41);"/>
        </g>
        <g transform="matrix(-1.55512e-14,-253.971,-1.27259,7.79236e-17,126.509,14023)">
            <rect x="54.976" y="45.446" width="0.034" height="29.286" style="fill:rgb(33,37,41);stroke:rgb(200,46,46);stroke-opacity:0;stroke-width:0.01px;"/>
        </g>
    </g>
</svg>
